# xmcd
#
# Track frame offsets:
#	150
#	23595
#	41707
#	61520
#	76035
#	93445
#	117920
#	138392
#	161102
#
# Disc length: 2405 seconds
#
# Revision: 1
# Processed by: cddbd v1.4b42PL1 Copyright (c) Steve Scherf et al.
# Submitted via: audiograbber 1.80
#
DISCID=65096309
DTITLE=Spirits Beckon You - One World
DYEAR=1900
DGENRE=
TTITLE0=Johannesburg
TTITLE1=Big Riddum Soca
TTITLE2=Spirit Beckon You
TTITLE3=Soul Forrest
TTITLE4=East of Java
TTITLE5=Ahm Sced Uh You
TTITLE6=Monique
TTITLE7=Calyposoul
TTITLE8=Brand New Day
EXTD=
EXTT0=
EXTT1=
EXTT2=
EXTT3=
EXTT4=
EXTT5=
EXTT6=
EXTT7=
EXTT8=
PLAYORDER=
